<svg xmlns="http://www.w3.org/2000/svg" xmlns:xlink="http://www.w3.org/1999/xlink" width="20.344" height="20.228" viewBox="0 0 20.344 20.228">
  <defs>
    <clipPath id="clip-path">
      <rect id="Rectangle_1298" data-name="Rectangle 1298" width="20.344" height="20.227" fill="none"/>
    </clipPath>
  </defs>
  <g id="Group_6059" data-name="Group 6059" transform="translate(0 0)">
    <g id="Group_6058" data-name="Group 6058" transform="translate(0 0)" clip-path="url(#clip-path)">
      <path id="Path_33901" data-name="Path 33901" d="M16.72,13.166a1.316,1.316,0,0,0-.955-.374,1.64,1.64,0,0,0-1.038.415l-.914.914a1.51,1.51,0,0,1-1.08.457,1.715,1.715,0,0,1-.789-.208,15.9,15.9,0,0,1-3.406-2.534A15.457,15.457,0,0,1,6,8.432a1.51,1.51,0,0,1,.249-1.869l.914-.914a1.392,1.392,0,0,0,.042-1.994L3.927.374A1.315,1.315,0,0,0,2.972,0,1.641,1.641,0,0,0,1.933.415,5.1,5.1,0,0,0,.064,3.863c-.416,3.447,1.163,6.6,5.482,10.882,5.109,5.109,9.345,5.483,10.55,5.483h.374a5.225,5.225,0,0,0,3.447-1.869,1.43,1.43,0,0,0,.041-1.993Z" transform="translate(0 0)"/>
    </g>
  </g>
</svg>
